<svg width="86" height="50" viewBox="0 0 86 50" fill="none" xmlns="http://www.w3.org/2000/svg">
<path d="M11.9669 42.6648C11.9669 40.3028 10.473 38.7744 8.29661 38.7744H0.76416V41.0568H7.6105C8.34825 41.0568 9.50099 41.0568 9.50099 42.6592C9.50099 44.2617 8.3501 44.2506 7.6105 44.2506H0.76416V49.3766H3.23932V46.544H7.20843L8.75586 49.3821H11.6626L9.89385 46.2328C11.1702 45.6659 11.9669 44.3914 11.9669 42.6648Z" fill="#1036CE"/>
<path d="M25.645 40.9381V38.7725H15.5156V49.3821H25.645V47.2127H17.976V45.06H25.645V43.0945H17.976V40.9381H25.645Z" fill="#1036CE"/>
<path d="M39.1625 38.7725V46.7384L32.6168 38.7725H29.2729V49.382H31.7389V41.4272L38.2717 49.3932H41.6285V38.7725H39.1625Z" fill="#1036CE"/>
<path d="M45.1714 38.7725V41.0567H49.8303V49.3765H52.2999V41.0567H56.9533V38.7725H45.1714Z" fill="#1036CE"/>
<path d="M70.6311 40.9381V38.7725H60.498V49.3821H70.6311V47.2127H62.9584V45.06H70.6311V43.0945H62.9584V40.9381H70.6311Z" fill="#FF5833"/>
<path d="M85.458 42.6648C85.458 40.3028 83.964 38.7744 81.7877 38.7744H74.2607V41.0568H81.1071C81.8448 41.0568 82.992 41.0568 82.992 42.6592C82.992 44.2617 81.8448 44.2506 81.1071 44.2506H74.2607V49.3766H76.7211V46.544H80.7032L82.2506 49.3821H85.1537L83.3849 46.2328C84.6667 45.6659 85.458 44.3914 85.458 42.6648Z" fill="#FF5833"/>
<path d="M59.3473 30.8492H52.8735C52.8207 30.8493 52.7685 30.8388 52.7197 30.8185C52.671 30.7981 52.6267 30.7683 52.5895 30.7307L50.7451 28.8781L44.3691 22.459C44.2744 22.3633 44.2212 22.2337 44.2212 22.0987C44.2212 21.9637 44.2744 21.8342 44.3691 21.7384L47.6595 18.4334C47.7348 18.3579 47.837 18.3154 47.9435 18.3154C48.05 18.3154 48.1521 18.3579 48.2275 18.4334L59.7162 29.973C59.7901 30.0445 59.8407 30.1368 59.8614 30.2377C59.882 30.3387 59.8716 30.4436 59.8317 30.5385C59.7917 30.6334 59.724 30.7139 59.6375 30.7694C59.5511 30.8249 59.4499 30.8527 59.3473 30.8492Z" fill="#FF5833"/>
<path d="M47.9358 3.56322V6.26609H29.8849L28.6141 4.98968C28.5668 4.94265 28.5293 4.88668 28.5037 4.82499C28.478 4.7633 28.4648 4.69713 28.4648 4.63029C28.4648 4.56345 28.478 4.49727 28.5037 4.43558C28.5293 4.37389 28.5668 4.31792 28.6141 4.27089L32.1959 0.671387H45.0752C45.4521 0.672601 45.825 0.748364 46.1728 0.894349C46.5205 1.04034 46.8362 1.25369 47.1018 1.52222C47.3674 1.79075 47.5778 2.1092 47.7209 2.4594C47.864 2.8096 47.9371 3.18467 47.9358 3.56322Z" fill="#FF5833"/>
<path d="M47.6887 25.8142L44.3688 22.4593C44.3215 22.4121 44.2839 22.3559 44.2583 22.2941C44.2326 22.2323 44.2194 22.1659 44.2194 22.0989C44.2194 22.0319 44.2326 21.9656 44.2583 21.9038C44.2839 21.8419 44.3215 21.7858 44.3688 21.7386L52.355 13.7152C52.4023 13.6682 52.4398 13.6122 52.4655 13.5505C52.4911 13.4888 52.5043 13.4227 52.5043 13.3558C52.5043 13.289 52.4911 13.2228 52.4655 13.1611C52.4398 13.0994 52.4023 13.0434 52.355 12.9964L40.6506 1.25679C40.6027 1.20886 40.5701 1.14773 40.5569 1.08116C40.5437 1.01459 40.5504 0.945571 40.5763 0.882862C40.6022 0.820153 40.646 0.766577 40.7023 0.728928C40.7585 0.691278 40.8246 0.671251 40.8922 0.671388H46.0288C46.6351 0.67103 47.2355 0.790785 47.7957 1.0238C48.3559 1.25681 48.8648 1.5985 49.2933 2.02931L60.2121 13.0112C60.3067 13.1067 60.3598 13.2359 60.3598 13.3706C60.3598 13.5053 60.3067 13.6346 60.2121 13.73L48.1757 25.8216C48.1433 25.8534 48.105 25.8785 48.0629 25.8953C48.0209 25.9121 47.9759 25.9204 47.9307 25.9198C47.8854 25.9191 47.8407 25.9094 47.7992 25.8913C47.7577 25.8732 47.7201 25.847 47.6887 25.8142Z" fill="#FF5833"/>
<path d="M44.4666 13.0112L32.1959 0.671387L28.6234 4.26163C28.5761 4.30866 28.5385 4.36463 28.5129 4.42632C28.4873 4.48801 28.4741 4.55419 28.4741 4.62103C28.4741 4.68787 28.4873 4.75404 28.5129 4.81573C28.5385 4.87742 28.5761 4.93339 28.6234 4.98042L36.6022 13.0112C36.6968 13.1067 36.7499 13.2359 36.7499 13.3706C36.7499 13.5053 36.6968 13.6346 36.6022 13.73L31.9045 18.4485L31.3955 18.9579L29.4294 20.9253L28.6123 21.746C28.565 21.7932 28.5274 21.8493 28.5017 21.9112C28.4761 21.973 28.4629 22.0393 28.4629 22.1063C28.4629 22.1733 28.4761 22.2397 28.5017 22.3015C28.5274 22.3633 28.565 22.4195 28.6123 22.4667L29.754 23.6134L32.183 26.0569L34.992 28.8746L36.8364 30.7272C36.8733 30.7647 36.9172 30.7945 36.9656 30.8149C37.0141 30.8352 37.0661 30.8457 37.1186 30.8457H43.5942C43.6947 30.8463 43.793 30.8168 43.8767 30.7609C43.9604 30.7051 44.0256 30.6254 44.064 30.5322C44.1024 30.4389 44.1122 30.3363 44.0923 30.2374C44.0724 30.1385 44.0235 30.0478 43.952 29.9769L36.4786 22.4592C36.3839 22.3635 36.3307 22.2339 36.3307 22.0989C36.3307 21.9639 36.3839 21.8344 36.4786 21.7386L44.4666 13.7152C44.5568 13.6204 44.6071 13.4943 44.6071 13.3632C44.6071 13.2321 44.5568 13.106 44.4666 13.0112Z" fill="#1036CE"/>
<g style="mix-blend-mode:multiply">
<path d="M32.1885 0.671387L37.7511 6.25683H39.9828L32.1885 0.671387Z" fill="#FF5833"/>
</g>
</svg>
